<mxfile host="app.diagrams.net" modified="2024-07-03T02:40:23.300Z" agent="Mozilla/5.0 (Windows NT 10.0; Win64; x64) AppleWebKit/537.36 (KHTML, like Gecko) Chrome/126.0.0.0 Safari/537.36" etag="BdC9N_Ht3OweK6D_f0ZP" version="24.6.4" type="device">
  <diagram id="C5RBs43oDa-KdzZeNtuy" name="Page-1">
    <mxGraphModel dx="1877" dy="530" grid="1" gridSize="10" guides="1" tooltips="1" connect="1" arrows="1" fold="1" page="1" pageScale="1" pageWidth="827" pageHeight="1169" math="0" shadow="0">
      <root>
        <mxCell id="WIyWlLk6GJQsqaUBKTNV-0" />
        <mxCell id="WIyWlLk6GJQsqaUBKTNV-1" parent="WIyWlLk6GJQsqaUBKTNV-0" />
        <mxCell id="WIyWlLk6GJQsqaUBKTNV-2" value="" style="rounded=0;html=1;jettySize=auto;orthogonalLoop=1;fontSize=11;endArrow=block;endFill=1;strokeWidth=1;shadow=0;labelBackgroundColor=none;edgeStyle=orthogonalEdgeStyle;exitX=0.5;exitY=1;exitDx=0;exitDy=0;" parent="WIyWlLk6GJQsqaUBKTNV-1" source="WIyWlLk6GJQsqaUBKTNV-3" target="WIyWlLk6GJQsqaUBKTNV-6" edge="1">
          <mxGeometry relative="1" as="geometry" />
        </mxCell>
        <mxCell id="WIyWlLk6GJQsqaUBKTNV-3" value="首頁/登入/註冊" style="rounded=1;whiteSpace=wrap;html=1;fontSize=12;glass=0;strokeWidth=1;shadow=0;" parent="WIyWlLk6GJQsqaUBKTNV-1" vertex="1">
          <mxGeometry x="160" y="10" width="120" height="40" as="geometry" />
        </mxCell>
        <mxCell id="WIyWlLk6GJQsqaUBKTNV-4" value="我是學生" style="rounded=0;html=1;jettySize=auto;orthogonalLoop=1;fontSize=11;endArrow=block;endFill=1;strokeWidth=1;shadow=0;labelBackgroundColor=none;edgeStyle=orthogonalEdgeStyle;exitX=1;exitY=0.5;exitDx=0;exitDy=0;strokeColor=default;entryX=0.5;entryY=0;entryDx=0;entryDy=0;" parent="WIyWlLk6GJQsqaUBKTNV-1" source="WIyWlLk6GJQsqaUBKTNV-6" target="yjJErMyUxvyeAu0v3r4H-2" edge="1">
          <mxGeometry x="0.5556" y="-20" relative="1" as="geometry">
            <mxPoint x="20" y="-20" as="offset" />
            <mxPoint x="370" y="160" as="targetPoint" />
          </mxGeometry>
        </mxCell>
        <mxCell id="YWJ8brz7kySGg1yS5jC1-32" value="" style="edgeStyle=orthogonalEdgeStyle;rounded=0;orthogonalLoop=1;jettySize=auto;html=1;exitX=0;exitY=0.5;exitDx=0;exitDy=0;endArrow=block;endFill=1;entryX=0.5;entryY=0;entryDx=0;entryDy=0;" parent="WIyWlLk6GJQsqaUBKTNV-1" source="WIyWlLk6GJQsqaUBKTNV-6" target="yjJErMyUxvyeAu0v3r4H-0" edge="1">
          <mxGeometry relative="1" as="geometry">
            <mxPoint x="200" y="150" as="sourcePoint" />
            <mxPoint x="120" y="160" as="targetPoint" />
            <Array as="points">
              <mxPoint x="80" y="130" />
            </Array>
          </mxGeometry>
        </mxCell>
        <mxCell id="yjJErMyUxvyeAu0v3r4H-4" value="我是家教" style="edgeLabel;html=1;align=center;verticalAlign=middle;resizable=0;points=[];" vertex="1" connectable="0" parent="YWJ8brz7kySGg1yS5jC1-32">
          <mxGeometry x="0.0831" y="-1" relative="1" as="geometry">
            <mxPoint x="-21" y="-20" as="offset" />
          </mxGeometry>
        </mxCell>
        <mxCell id="WIyWlLk6GJQsqaUBKTNV-6" value="我是學生&lt;div&gt;or&lt;/div&gt;&lt;div&gt;我是家教&lt;/div&gt;" style="rhombus;whiteSpace=wrap;html=1;shadow=0;fontFamily=Helvetica;fontSize=12;align=center;strokeWidth=1;spacing=6;spacingTop=-4;" parent="WIyWlLk6GJQsqaUBKTNV-1" vertex="1">
          <mxGeometry x="150" y="90" width="140" height="80" as="geometry" />
        </mxCell>
        <mxCell id="WIyWlLk6GJQsqaUBKTNV-8" value="是" style="rounded=0;html=1;jettySize=auto;orthogonalLoop=1;fontSize=11;endArrow=block;endFill=1;strokeWidth=1;shadow=0;labelBackgroundColor=none;edgeStyle=orthogonalEdgeStyle;" parent="WIyWlLk6GJQsqaUBKTNV-1" source="WIyWlLk6GJQsqaUBKTNV-10" target="WIyWlLk6GJQsqaUBKTNV-11" edge="1">
          <mxGeometry x="0.2" y="20" relative="1" as="geometry">
            <mxPoint as="offset" />
          </mxGeometry>
        </mxCell>
        <mxCell id="WIyWlLk6GJQsqaUBKTNV-9" value="否" style="edgeStyle=orthogonalEdgeStyle;rounded=0;html=1;jettySize=auto;orthogonalLoop=1;fontSize=11;endArrow=block;endFill=1;strokeWidth=1;shadow=0;labelBackgroundColor=none;" parent="WIyWlLk6GJQsqaUBKTNV-1" source="WIyWlLk6GJQsqaUBKTNV-10" edge="1">
          <mxGeometry x="-0.4737" y="20" relative="1" as="geometry">
            <mxPoint as="offset" />
            <mxPoint x="540" y="460" as="targetPoint" />
          </mxGeometry>
        </mxCell>
        <mxCell id="WIyWlLk6GJQsqaUBKTNV-10" value="是否提出家教需求" style="rhombus;whiteSpace=wrap;html=1;shadow=0;fontFamily=Helvetica;fontSize=12;align=center;strokeWidth=1;spacing=6;spacingTop=-4;" parent="WIyWlLk6GJQsqaUBKTNV-1" vertex="1">
          <mxGeometry x="290" y="340" width="140" height="80" as="geometry" />
        </mxCell>
        <mxCell id="YWJ8brz7kySGg1yS5jC1-25" value="" style="edgeStyle=orthogonalEdgeStyle;rounded=0;orthogonalLoop=1;jettySize=auto;html=1;flowAnimation=0;endArrow=block;endFill=1;" parent="WIyWlLk6GJQsqaUBKTNV-1" source="WIyWlLk6GJQsqaUBKTNV-11" target="YWJ8brz7kySGg1yS5jC1-24" edge="1">
          <mxGeometry relative="1" as="geometry" />
        </mxCell>
        <mxCell id="YWJ8brz7kySGg1yS5jC1-40" value="家教申請後" style="edgeLabel;html=1;align=center;verticalAlign=middle;resizable=0;points=[];" parent="YWJ8brz7kySGg1yS5jC1-25" connectable="0" vertex="1">
          <mxGeometry x="-0.0278" y="6" relative="1" as="geometry">
            <mxPoint x="34" as="offset" />
          </mxGeometry>
        </mxCell>
        <mxCell id="WIyWlLk6GJQsqaUBKTNV-11" value="提案頁面" style="rounded=0;whiteSpace=wrap;html=1;fontSize=12;glass=0;strokeWidth=1;shadow=0;" parent="WIyWlLk6GJQsqaUBKTNV-1" vertex="1">
          <mxGeometry x="300" y="460" width="120" height="40" as="geometry" />
        </mxCell>
        <mxCell id="YWJ8brz7kySGg1yS5jC1-28" style="edgeStyle=orthogonalEdgeStyle;rounded=0;orthogonalLoop=1;jettySize=auto;html=1;exitX=0.5;exitY=1;exitDx=0;exitDy=0;entryX=1;entryY=0.5;entryDx=0;entryDy=0;endArrow=block;endFill=1;" parent="WIyWlLk6GJQsqaUBKTNV-1" source="WIyWlLk6GJQsqaUBKTNV-12" target="YWJ8brz7kySGg1yS5jC1-24" edge="1">
          <mxGeometry relative="1" as="geometry">
            <mxPoint x="540" y="500" as="sourcePoint" />
          </mxGeometry>
        </mxCell>
        <mxCell id="WIyWlLk6GJQsqaUBKTNV-12" value="家教履歷頁面" style="rounded=0;whiteSpace=wrap;html=1;fontSize=12;glass=0;strokeWidth=1;shadow=0;" parent="WIyWlLk6GJQsqaUBKTNV-1" vertex="1">
          <mxGeometry x="480" y="460" width="120" height="40" as="geometry" />
        </mxCell>
        <mxCell id="YWJ8brz7kySGg1yS5jC1-27" value="" style="edgeStyle=orthogonalEdgeStyle;rounded=0;orthogonalLoop=1;jettySize=auto;html=1;entryX=1;entryY=0.5;entryDx=0;entryDy=0;exitX=0.5;exitY=1;exitDx=0;exitDy=0;endArrow=block;endFill=1;" parent="WIyWlLk6GJQsqaUBKTNV-1" source="YWJ8brz7kySGg1yS5jC1-24" target="YWJ8brz7kySGg1yS5jC1-26" edge="1">
          <mxGeometry relative="1" as="geometry" />
        </mxCell>
        <mxCell id="YWJ8brz7kySGg1yS5jC1-24" value="&lt;div&gt;選擇家教&lt;/div&gt;" style="whiteSpace=wrap;html=1;rounded=0;glass=0;strokeWidth=1;shadow=0;" parent="WIyWlLk6GJQsqaUBKTNV-1" vertex="1">
          <mxGeometry x="300" y="550" width="120" height="40" as="geometry" />
        </mxCell>
        <mxCell id="YWJ8brz7kySGg1yS5jC1-26" value="開始學習" style="whiteSpace=wrap;html=1;rounded=1;glass=0;strokeWidth=1;shadow=0;" parent="WIyWlLk6GJQsqaUBKTNV-1" vertex="1">
          <mxGeometry x="160" y="625" width="120" height="60" as="geometry" />
        </mxCell>
        <mxCell id="YWJ8brz7kySGg1yS5jC1-36" value="" style="edgeStyle=orthogonalEdgeStyle;rounded=0;orthogonalLoop=1;jettySize=auto;html=1;endArrow=block;endFill=1;" parent="WIyWlLk6GJQsqaUBKTNV-1" source="YWJ8brz7kySGg1yS5jC1-31" target="YWJ8brz7kySGg1yS5jC1-35" edge="1">
          <mxGeometry relative="1" as="geometry" />
        </mxCell>
        <mxCell id="YWJ8brz7kySGg1yS5jC1-42" value="是" style="edgeLabel;html=1;align=center;verticalAlign=middle;resizable=0;points=[];" parent="YWJ8brz7kySGg1yS5jC1-36" connectable="0" vertex="1">
          <mxGeometry x="0.0533" relative="1" as="geometry">
            <mxPoint x="20" y="4" as="offset" />
          </mxGeometry>
        </mxCell>
        <mxCell id="YWJ8brz7kySGg1yS5jC1-44" value="" style="edgeStyle=orthogonalEdgeStyle;rounded=0;orthogonalLoop=1;jettySize=auto;html=1;endArrow=block;endFill=1;" parent="WIyWlLk6GJQsqaUBKTNV-1" source="YWJ8brz7kySGg1yS5jC1-31" target="YWJ8brz7kySGg1yS5jC1-43" edge="1">
          <mxGeometry relative="1" as="geometry" />
        </mxCell>
        <mxCell id="YWJ8brz7kySGg1yS5jC1-45" value="否" style="edgeLabel;html=1;align=center;verticalAlign=middle;resizable=0;points=[];" parent="YWJ8brz7kySGg1yS5jC1-44" connectable="0" vertex="1">
          <mxGeometry x="-0.1259" y="-4" relative="1" as="geometry">
            <mxPoint x="33" y="-16" as="offset" />
          </mxGeometry>
        </mxCell>
        <mxCell id="YWJ8brz7kySGg1yS5jC1-31" value="是否提出履歷表" style="rhombus;whiteSpace=wrap;html=1;shadow=0;fontFamily=Helvetica;fontSize=12;align=center;strokeWidth=1;spacing=6;spacingTop=-4;" parent="WIyWlLk6GJQsqaUBKTNV-1" vertex="1">
          <mxGeometry x="10" y="340" width="140" height="80" as="geometry" />
        </mxCell>
        <mxCell id="YWJ8brz7kySGg1yS5jC1-38" value="" style="edgeStyle=orthogonalEdgeStyle;rounded=0;orthogonalLoop=1;jettySize=auto;html=1;endArrow=block;endFill=1;" parent="WIyWlLk6GJQsqaUBKTNV-1" source="YWJ8brz7kySGg1yS5jC1-35" target="YWJ8brz7kySGg1yS5jC1-37" edge="1">
          <mxGeometry relative="1" as="geometry" />
        </mxCell>
        <mxCell id="YWJ8brz7kySGg1yS5jC1-39" value="學生申請後" style="edgeLabel;html=1;align=center;verticalAlign=middle;resizable=0;points=[];" parent="YWJ8brz7kySGg1yS5jC1-38" connectable="0" vertex="1">
          <mxGeometry x="-0.1667" y="8" relative="1" as="geometry">
            <mxPoint x="32" as="offset" />
          </mxGeometry>
        </mxCell>
        <mxCell id="YWJ8brz7kySGg1yS5jC1-35" value="履歷編輯頁面" style="whiteSpace=wrap;html=1;shadow=0;strokeWidth=1;spacing=6;spacingTop=-4;" parent="WIyWlLk6GJQsqaUBKTNV-1" vertex="1">
          <mxGeometry x="20" y="460" width="120" height="40" as="geometry" />
        </mxCell>
        <mxCell id="YWJ8brz7kySGg1yS5jC1-41" style="edgeStyle=orthogonalEdgeStyle;rounded=0;orthogonalLoop=1;jettySize=auto;html=1;exitX=0.5;exitY=1;exitDx=0;exitDy=0;entryX=0;entryY=0.5;entryDx=0;entryDy=0;endArrow=block;endFill=1;" parent="WIyWlLk6GJQsqaUBKTNV-1" source="YWJ8brz7kySGg1yS5jC1-37" target="YWJ8brz7kySGg1yS5jC1-26" edge="1">
          <mxGeometry relative="1" as="geometry" />
        </mxCell>
        <mxCell id="YWJ8brz7kySGg1yS5jC1-37" value="選擇學生" style="whiteSpace=wrap;html=1;shadow=0;strokeWidth=1;spacing=6;spacingTop=-4;" parent="WIyWlLk6GJQsqaUBKTNV-1" vertex="1">
          <mxGeometry x="20" y="550" width="120" height="40" as="geometry" />
        </mxCell>
        <mxCell id="YWJ8brz7kySGg1yS5jC1-46" style="edgeStyle=orthogonalEdgeStyle;rounded=0;orthogonalLoop=1;jettySize=auto;html=1;exitX=0.5;exitY=1;exitDx=0;exitDy=0;entryX=0;entryY=0.5;entryDx=0;entryDy=0;endArrow=block;endFill=1;" parent="WIyWlLk6GJQsqaUBKTNV-1" source="YWJ8brz7kySGg1yS5jC1-43" target="YWJ8brz7kySGg1yS5jC1-37" edge="1">
          <mxGeometry relative="1" as="geometry" />
        </mxCell>
        <mxCell id="YWJ8brz7kySGg1yS5jC1-43" value="學生提案頁面" style="whiteSpace=wrap;html=1;shadow=0;strokeWidth=1;spacing=6;spacingTop=-4;" parent="WIyWlLk6GJQsqaUBKTNV-1" vertex="1">
          <mxGeometry x="-160" y="460" width="120" height="40" as="geometry" />
        </mxCell>
        <mxCell id="yjJErMyUxvyeAu0v3r4H-1" value="" style="edgeStyle=orthogonalEdgeStyle;rounded=0;orthogonalLoop=1;jettySize=auto;html=1;entryX=0.5;entryY=0;entryDx=0;entryDy=0;" edge="1" parent="WIyWlLk6GJQsqaUBKTNV-1" source="yjJErMyUxvyeAu0v3r4H-0" target="yjJErMyUxvyeAu0v3r4H-7">
          <mxGeometry relative="1" as="geometry" />
        </mxCell>
        <mxCell id="yjJErMyUxvyeAu0v3r4H-0" value="學生提案頁面" style="whiteSpace=wrap;html=1;shadow=0;strokeWidth=1;spacing=6;spacingTop=-4;" vertex="1" parent="WIyWlLk6GJQsqaUBKTNV-1">
          <mxGeometry x="20" y="150" width="120" height="40" as="geometry" />
        </mxCell>
        <mxCell id="yjJErMyUxvyeAu0v3r4H-3" value="" style="edgeStyle=orthogonalEdgeStyle;rounded=0;orthogonalLoop=1;jettySize=auto;html=1;entryX=0.5;entryY=0;entryDx=0;entryDy=0;" edge="1" parent="WIyWlLk6GJQsqaUBKTNV-1" source="yjJErMyUxvyeAu0v3r4H-2" target="yjJErMyUxvyeAu0v3r4H-8">
          <mxGeometry relative="1" as="geometry" />
        </mxCell>
        <mxCell id="yjJErMyUxvyeAu0v3r4H-2" value="家教履歷頁面" style="rounded=0;whiteSpace=wrap;html=1;fontSize=12;glass=0;strokeWidth=1;shadow=0;" vertex="1" parent="WIyWlLk6GJQsqaUBKTNV-1">
          <mxGeometry x="300" y="150" width="120" height="40" as="geometry" />
        </mxCell>
        <mxCell id="yjJErMyUxvyeAu0v3r4H-10" value="" style="edgeStyle=orthogonalEdgeStyle;rounded=0;orthogonalLoop=1;jettySize=auto;html=1;" edge="1" parent="WIyWlLk6GJQsqaUBKTNV-1" source="yjJErMyUxvyeAu0v3r4H-7" target="YWJ8brz7kySGg1yS5jC1-31">
          <mxGeometry relative="1" as="geometry" />
        </mxCell>
        <mxCell id="yjJErMyUxvyeAu0v3r4H-11" value="是" style="edgeLabel;html=1;align=center;verticalAlign=middle;resizable=0;points=[];" vertex="1" connectable="0" parent="yjJErMyUxvyeAu0v3r4H-10">
          <mxGeometry x="-0.18" y="1" relative="1" as="geometry">
            <mxPoint x="19" as="offset" />
          </mxGeometry>
        </mxCell>
        <mxCell id="yjJErMyUxvyeAu0v3r4H-13" style="edgeStyle=orthogonalEdgeStyle;rounded=0;orthogonalLoop=1;jettySize=auto;html=1;exitX=0;exitY=0.5;exitDx=0;exitDy=0;entryX=0;entryY=0.5;entryDx=0;entryDy=0;" edge="1" parent="WIyWlLk6GJQsqaUBKTNV-1" source="yjJErMyUxvyeAu0v3r4H-7" target="yjJErMyUxvyeAu0v3r4H-0">
          <mxGeometry relative="1" as="geometry" />
        </mxCell>
        <mxCell id="yjJErMyUxvyeAu0v3r4H-14" value="否" style="edgeLabel;html=1;align=center;verticalAlign=middle;resizable=0;points=[];" vertex="1" connectable="0" parent="yjJErMyUxvyeAu0v3r4H-13">
          <mxGeometry x="0.0229" y="2" relative="1" as="geometry">
            <mxPoint x="-18" y="12" as="offset" />
          </mxGeometry>
        </mxCell>
        <mxCell id="yjJErMyUxvyeAu0v3r4H-7" value="是否登入" style="rhombus;whiteSpace=wrap;html=1;shadow=0;fontFamily=Helvetica;fontSize=12;align=center;strokeWidth=1;spacing=6;spacingTop=-4;" vertex="1" parent="WIyWlLk6GJQsqaUBKTNV-1">
          <mxGeometry x="10" y="220" width="140" height="80" as="geometry" />
        </mxCell>
        <mxCell id="yjJErMyUxvyeAu0v3r4H-9" value="" style="edgeStyle=orthogonalEdgeStyle;rounded=0;orthogonalLoop=1;jettySize=auto;html=1;" edge="1" parent="WIyWlLk6GJQsqaUBKTNV-1" source="yjJErMyUxvyeAu0v3r4H-8" target="WIyWlLk6GJQsqaUBKTNV-10">
          <mxGeometry relative="1" as="geometry" />
        </mxCell>
        <mxCell id="yjJErMyUxvyeAu0v3r4H-12" value="是" style="edgeLabel;html=1;align=center;verticalAlign=middle;resizable=0;points=[];" vertex="1" connectable="0" parent="yjJErMyUxvyeAu0v3r4H-9">
          <mxGeometry x="-0.18" y="-1" relative="1" as="geometry">
            <mxPoint x="21" as="offset" />
          </mxGeometry>
        </mxCell>
        <mxCell id="yjJErMyUxvyeAu0v3r4H-15" style="edgeStyle=orthogonalEdgeStyle;rounded=0;orthogonalLoop=1;jettySize=auto;html=1;exitX=1;exitY=0.5;exitDx=0;exitDy=0;entryX=1;entryY=0.5;entryDx=0;entryDy=0;" edge="1" parent="WIyWlLk6GJQsqaUBKTNV-1" source="yjJErMyUxvyeAu0v3r4H-8" target="yjJErMyUxvyeAu0v3r4H-2">
          <mxGeometry relative="1" as="geometry" />
        </mxCell>
        <mxCell id="yjJErMyUxvyeAu0v3r4H-16" value="否" style="edgeLabel;html=1;align=center;verticalAlign=middle;resizable=0;points=[];" vertex="1" connectable="0" parent="yjJErMyUxvyeAu0v3r4H-15">
          <mxGeometry x="-0.0629" y="-1" relative="1" as="geometry">
            <mxPoint x="19" y="6" as="offset" />
          </mxGeometry>
        </mxCell>
        <mxCell id="yjJErMyUxvyeAu0v3r4H-8" value="是否登入" style="rhombus;whiteSpace=wrap;html=1;shadow=0;fontFamily=Helvetica;fontSize=12;align=center;strokeWidth=1;spacing=6;spacingTop=-4;" vertex="1" parent="WIyWlLk6GJQsqaUBKTNV-1">
          <mxGeometry x="290" y="220" width="140" height="80" as="geometry" />
        </mxCell>
      </root>
    </mxGraphModel>
  </diagram>
</mxfile>
